mtllib BlocoInstrucao_V4.mtl
# Bloco de Instrucao V4 - 2 andares, 8 salas por andar
# Coordenadas em studs aproximados: X largura, Y altura, Z profundidade

# BOX helper pattern: 8 vertices then 6 quad faces using negative indices

o GroundSlab
usemtl Concrete
v -100 -1 -45
v 100 -1 -45
v 100 0 -45
v -100 0 -45
v -100 -1 45
v 100 -1 45
v 100 0 45
v -100 0 45
f -8 -7 -6 -5
f -4 -1 -2 -3
f -8 -4 -3 -7
f -5 -6 -2 -1
f -8 -5 -1 -4
f -7 -3 -2 -6

o SecondFloorSlab
usemtl Concrete
v -98 13.5 -43
v 98 13.5 -43
v 98 14 -43
v -98 14 -43
v -98 13.5 43
v 98 13.5 43
v 98 14 43
v -98 14 43
f -8 -7 -6 -5
f -4 -1 -2 -3
f -8 -4 -3 -7
f -5 -6 -2 -1
f -8 -5 -1 -4
f -7 -3 -2 -6

o CeilingSlab
usemtl Concrete
v -98 27.5 -43
v 98 27.5 -43
v 98 28 -43
v -98 28 -43
v -98 27.5 43
v 98 27.5 43
v 98 28 43
v -98 28 43
f -8 -7 -6 -5
f -4 -1 -2 -3
f -8 -4 -3 -7
f -5 -6 -2 -1
f -8 -5 -1 -4
f -7 -3 -2 -6

# Paredes laterais

o OuterLeft
usemtl WhiteBrick
v -98 0 -43
v -97 0 -43
v -97 28 -43
v -98 28 -43
v -98 0 43
v -97 0 43
v -97 28 43
v -98 28 43
f -8 -7 -6 -5
f -4 -1 -2 -3
f -8 -4 -3 -7
f -5 -6 -2 -1
f -8 -5 -1 -4
f -7 -3 -2 -6

o OuterRight
usemtl WhiteBrick
v 97 0 -43
v 98 0 -43
v 98 28 -43
v 97 28 -43
v 97 0 43
v 98 0 43
v 98 28 43
v 97 28 43
f -8 -7 -6 -5
f -4 -1 -2 -3
f -8 -4 -3 -7
f -5 -6 -2 -1
f -8 -5 -1 -4
f -7 -3 -2 -6

# Fachada frontal - alas

o FrontLeftWing
usemtl WhiteBrick
v -98 0 -43
v -14 0 -43
v -14 28 -43
v -98 28 -43
v -98 0 -42
v -14 0 -42
v -14 28 -42
v -98 28 -42
f -8 -7 -6 -5
f -4 -1 -2 -3
f -8 -4 -3 -7
f -5 -6 -2 -1
f -8 -5 -1 -4
f -7 -3 -2 -6

o FrontRightWing
usemtl WhiteBrick
v 14 0 -43
v 98 0 -43
v 98 28 -43
v 14 28 -43
v 14 0 -42
v 98 0 -42
v 98 28 -42
v 14 28 -42
f -8 -7 -6 -5
f -4 -1 -2 -3
f -8 -4 -3 -7
f -5 -6 -2 -1
f -8 -5 -1 -4
f -7 -3 -2 -6

# Entrada central térrea com abertura 12x10

o EntryLeft
usemtl WhiteBrick
v -14 0 -43
v -6 0 -43
v -6 14 -43
v -14 14 -43
v -14 0 -42
v -6 0 -42
v -6 14 -42
v -14 14 -42
f -8 -7 -6 -5
f -4 -1 -2 -3
f -8 -4 -3 -7
f -5 -6 -2 -1
f -8 -5 -1 -4
f -7 -3 -2 -6

o EntryRight
usemtl WhiteBrick
v 6 0 -43
v 14 0 -43
v 14 14 -43
v 6 14 -43
v 6 0 -42
v 14 0 -42
v 14 14 -42
v 6 14 -42
f -8 -7 -6 -5
f -4 -1 -2 -3
f -8 -4 -3 -7
f -5 -6 -2 -1
f -8 -5 -1 -4
f -7 -3 -2 -6

o EntryHeader
usemtl WhiteBrick
v -6 10 -43
v 6 10 -43
v 6 14 -43
v -6 14 -43
v -6 10 -42
v 6 10 -42
v 6 14 -42
v -6 14 -42
f -8 -7 -6 -5
f -4 -1 -2 -3
f -8 -4 -3 -7
f -5 -6 -2 -1
f -8 -5 -1 -4
f -7 -3 -2 -6

# Porta para varanda no segundo andar

o BalconyDoorLeft
usemtl WhiteBrick
v -14 14 -43
v -4 14 -43
v -4 28 -43
v -14 28 -43
v -14 14 -42
v -4 14 -42
v -4 28 -42
v -14 28 -42
f -8 -7 -6 -5
f -4 -1 -2 -3
f -8 -4 -3 -7
f -5 -6 -2 -1
f -8 -5 -1 -4
f -7 -3 -2 -6

o BalconyDoorRight
usemtl WhiteBrick
v 4 14 -43
v 14 14 -43
v 14 28 -43
v 4 28 -43
v 4 14 -42
v 14 14 -42
v 14 28 -42
v 4 28 -42
f -8 -7 -6 -5
f -4 -1 -2 -3
f -8 -4 -3 -7
f -5 -6 -2 -1
f -8 -5 -1 -4
f -7 -3 -2 -6

o BalconyDoorHeader
usemtl WhiteBrick
v -4 23 -43
v 4 23 -43
v 4 28 -43
v -4 28 -43
v -4 23 -42
v 4 23 -42
v 4 28 -42
v -4 28 -42
f -8 -7 -6 -5
f -4 -1 -2 -3
f -8 -4 -3 -7
f -5 -6 -2 -1
f -8 -5 -1 -4
f -7 -3 -2 -6

# Fundos

o BackLeftWing
usemtl WhiteBrick
v -98 0 42
v -14 0 42
v -14 28 42
v -98 28 42
v -98 0 43
v -14 0 43
v -14 28 43
v -98 28 43
f -8 -7 -6 -5
f -4 -1 -2 -3
f -8 -4 -3 -7
f -5 -6 -2 -1
f -8 -5 -1 -4
f -7 -3 -2 -6

o BackCenter
usemtl WhiteBrick
v -14 0 42
v 14 0 42
v 14 28 42
v -14 28 42
v -14 0 43
v 14 0 43
v 14 28 43
v -14 28 43
f -8 -7 -6 -5
f -4 -1 -2 -3
f -8 -4 -3 -7
f -5 -6 -2 -1
f -8 -5 -1 -4
f -7 -3 -2 -6

o BackRightWing
usemtl WhiteBrick
v 14 0 42
v 98 0 42
v 98 28 42
v 14 28 42
v 14 0 43
v 98 0 43
v 98 28 43
v 14 28 43
f -8 -7 -6 -5
f -4 -1 -2 -3
f -8 -4 -3 -7
f -5 -6 -2 -1
f -8 -5 -1 -4
f -7 -3 -2 -6

# Divisórias de salas: frente e fundo, dois andares

o DivF_m56_A1
usemtl WhiteBrick
v -56 0 -43
v -55 0 -43
v -55 14 -43
v -56 14 -43
v -56 0 -7
v -55 0 -7
v -55 14 -7
v -56 14 -7
f -8 -7 -6 -5
f -4 -1 -2 -3
f -8 -4 -3 -7
f -5 -6 -2 -1
f -8 -5 -1 -4
f -7 -3 -2 -6

o DivF_m14_A1
usemtl WhiteBrick
v -14 0 -43
v -13 0 -43
v -13 14 -43
v -14 14 -43
v -14 0 -7
v -13 0 -7
v -13 14 -7
v -14 14 -7
f -8 -7 -6 -5
f -4 -1 -2 -3
f -8 -4 -3 -7
f -5 -6 -2 -1
f -8 -5 -1 -4
f -7 -3 -2 -6

o DivF_p14_A1
usemtl WhiteBrick
v 13 0 -43
v 14 0 -43
v 14 14 -43
v 13 14 -43
v 13 0 -7
v 14 0 -7
v 14 14 -7
v 13 14 -7
f -8 -7 -6 -5
f -4 -1 -2 -3
f -8 -4 -3 -7
f -5 -6 -2 -1
f -8 -5 -1 -4
f -7 -3 -2 -6

o DivF_p56_A1
usemtl WhiteBrick
v 55 0 -43
v 56 0 -43
v 56 14 -43
v 55 14 -43
v 55 0 -7
v 56 0 -7
v 56 14 -7
v 55 14 -7
f -8 -7 -6 -5
f -4 -1 -2 -3
f -8 -4 -3 -7
f -5 -6 -2 -1
f -8 -5 -1 -4
f -7 -3 -2 -6

o DivB_m56_A1
usemtl WhiteBrick
v -56 0 7
v -55 0 7
v -55 14 7
v -56 14 7
v -56 0 43
v -55 0 43
v -55 14 43
v -56 14 43
f -8 -7 -6 -5
f -4 -1 -2 -3
f -8 -4 -3 -7
f -5 -6 -2 -1
f -8 -5 -1 -4
f -7 -3 -2 -6

o DivB_m14_A1
usemtl WhiteBrick
v -14 0 7
v -13 0 7
v -13 14 7
v -14 14 7
v -14 0 43
v -13 0 43
v -13 14 43
v -14 14 43
f -8 -7 -6 -5
f -4 -1 -2 -3
f -8 -4 -3 -7
f -5 -6 -2 -1
f -8 -5 -1 -4
f -7 -3 -2 -6

o DivB_p14_A1
usemtl WhiteBrick
v 13 0 7
v 14 0 7
v 14 14 7
v 13 14 7
v 13 0 43
v 14 0 43
v 14 14 43
v 13 14 43
f -8 -7 -6 -5
f -4 -1 -2 -3
f -8 -4 -3 -7
f -5 -6 -2 -1
f -8 -5 -1 -4
f -7 -3 -2 -6

o DivB_p56_A1
usemtl WhiteBrick
v 55 0 7
v 56 0 7
v 56 14 7
v 55 14 7
v 55 0 43
v 56 0 43
v 56 14 43
v 55 14 43
f -8 -7 -6 -5
f -4 -1 -2 -3
f -8 -4 -3 -7
f -5 -6 -2 -1
f -8 -5 -1 -4
f -7 -3 -2 -6

# mesmas divisórias no segundo andar

o DivF_m56_A2
usemtl WhiteBrick
v -56 14 -43
v -55 14 -43
v -55 28 -43
v -56 28 -43
v -56 14 -7
v -55 14 -7
v -55 28 -7
v -56 28 -7
f -8 -7 -6 -5
f -4 -1 -2 -3
f -8 -4 -3 -7
f -5 -6 -2 -1
f -8 -5 -1 -4
f -7 -3 -2 -6

o DivF_m14_A2
usemtl WhiteBrick
v -14 14 -43
v -13 14 -43
v -13 28 -43
v -14 28 -43
v -14 14 -7
v -13 14 -7
v -13 28 -7
v -14 28 -7
f -8 -7 -6 -5
f -4 -1 -2 -3
f -8 -4 -3 -7
f -5 -6 -2 -1
f -8 -5 -1 -4
f -7 -3 -2 -6

o DivF_p14_A2
usemtl WhiteBrick
v 13 14 -43
v 14 14 -43
v 14 28 -43
v 13 28 -43
v 13 14 -7
v 14 14 -7
v 14 28 -7
v 13 28 -7
f -8 -7 -6 -5
f -4 -1 -2 -3
f -8 -4 -3 -7
f -5 -6 -2 -1
f -8 -5 -1 -4
f -7 -3 -2 -6

o DivF_p56_A2
usemtl WhiteBrick
v 55 14 -43
v 56 14 -43
v 56 28 -43
v 55 28 -43
v 55 14 -7
v 56 14 -7
v 56 28 -7
v 55 28 -7
f -8 -7 -6 -5
f -4 -1 -2 -3
f -8 -4 -3 -7
f -5 -6 -2 -1
f -8 -5 -1 -4
f -7 -3 -2 -6

o DivB_m56_A2
usemtl WhiteBrick
v -56 14 7
v -55 14 7
v -55 28 7
v -56 28 7
v -56 14 43
v -55 14 43
v -55 28 43
v -56 28 43
f -8 -7 -6 -5
f -4 -1 -2 -3
f -8 -4 -3 -7
f -5 -6 -2 -1
f -8 -5 -1 -4
f -7 -3 -2 -6

o DivB_m14_A2
usemtl WhiteBrick
v -14 14 7
v -13 14 7
v -13 28 7
v -14 28 7
v -14 14 43
v -13 14 43
v -13 28 43
v -14 28 43
f -8 -7 -6 -5
f -4 -1 -2 -3
f -8 -4 -3 -7
f -5 -6 -2 -1
f -8 -5 -1 -4
f -7 -3 -2 -6

o DivB_p14_A2
usemtl WhiteBrick
v 13 14 7
v 14 14 7
v 14 28 7
v 13 28 7
v 13 14 43
v 14 14 43
v 14 28 43
v 13 28 43
f -8 -7 -6 -5
f -4 -1 -2 -3
f -8 -4 -3 -7
f -5 -6 -2 -1
f -8 -5 -1 -4
f -7 -3 -2 -6

o DivB_p56_A2
usemtl WhiteBrick
v 55 14 7
v 56 14 7
v 56 28 7
v 55 28 7
v 55 14 43
v 56 14 43
v 56 28 43
v 55 28 43
f -8 -7 -6 -5
f -4 -1 -2 -3
f -8 -4 -3 -7
f -5 -6 -2 -1
f -8 -5 -1 -4
f -7 -3 -2 -6

# Paredes do corredor com portas - função expandida manualmente
# Centros: -77,-35,35,77; largura sala 42; porta 6; segmentos 18

# Terreo frente z=-7

o CF1L
usemtl WhiteBrick
v -98 0 -7.5
v -80 0 -7.5
v -80 14 -7.5
v -98 14 -7.5
v -98 0 -6.5
v -80 0 -6.5
v -80 14 -6.5
v -98 14 -6.5
f -8 -7 -6 -5
f -4 -1 -2 -3
f -8 -4 -3 -7
f -5 -6 -2 -1
f -8 -5 -1 -4
f -7 -3 -2 -6

o CF1R
usemtl WhiteBrick
v -74 0 -7.5
v -56 0 -7.5
v -56 14 -7.5
v -74 14 -7.5
v -74 0 -6.5
v -56 0 -6.5
v -56 14 -6.5
v -74 14 -6.5
f -8 -7 -6 -5
f -4 -1 -2 -3
f -8 -4 -3 -7
f -5 -6 -2 -1
f -8 -5 -1 -4
f -7 -3 -2 -6

o CF1H
usemtl WhiteBrick
v -80 9 -7.5
v -74 9 -7.5
v -74 14 -7.5
v -80 14 -7.5
v -80 9 -6.5
v -74 9 -6.5
v -74 14 -6.5
v -80 14 -6.5
f -8 -7 -6 -5
f -4 -1 -2 -3
f -8 -4 -3 -7
f -5 -6 -2 -1
f -8 -5 -1 -4
f -7 -3 -2 -6

o CF2L
usemtl WhiteBrick
v -56 0 -7.5
v -38 0 -7.5
v -38 14 -7.5
v -56 14 -7.5
v -56 0 -6.5
v -38 0 -6.5
v -38 14 -6.5
v -56 14 -6.5
f -8 -7 -6 -5
f -4 -1 -2 -3
f -8 -4 -3 -7
f -5 -6 -2 -1
f -8 -5 -1 -4
f -7 -3 -2 -6

o CF2R
usemtl WhiteBrick
v -32 0 -7.5
v -14 0 -7.5
v -14 14 -7.5
v -32 14 -7.5
v -32 0 -6.5
v -14 0 -6.5
v -14 14 -6.5
v -32 14 -6.5
f -8 -7 -6 -5
f -4 -1 -2 -3
f -8 -4 -3 -7
f -5 -6 -2 -1
f -8 -5 -1 -4
f -7 -3 -2 -6

o CF2H
usemtl WhiteBrick
v -38 9 -7.5
v -32 9 -7.5
v -32 14 -7.5
v -38 14 -7.5
v -38 9 -6.5
v -32 9 -6.5
v -32 14 -6.5
v -38 14 -6.5
f -8 -7 -6 -5
f -4 -1 -2 -3
f -8 -4 -3 -7
f -5 -6 -2 -1
f -8 -5 -1 -4
f -7 -3 -2 -6

o CF3L
usemtl WhiteBrick
v 14 0 -7.5
v 32 0 -7.5
v 32 14 -7.5
v 14 14 -7.5
v 14 0 -6.5
v 32 0 -6.5
v 32 14 -6.5
v 14 14 -6.5
f -8 -7 -6 -5
f -4 -1 -2 -3
f -8 -4 -3 -7
f -5 -6 -2 -1
f -8 -5 -1 -4
f -7 -3 -2 -6

o CF3R
usemtl WhiteBrick
v 38 0 -7.5
v 56 0 -7.5
v 56 14 -7.5
v 38 14 -7.5
v 38 0 -6.5
v 56 0 -6.5
v 56 14 -6.5
v 38 14 -6.5
f -8 -7 -6 -5
f -4 -1 -2 -3
f -8 -4 -3 -7
f -5 -6 -2 -1
f -8 -5 -1 -4
f -7 -3 -2 -6

o CF3H
usemtl WhiteBrick
v 32 9 -7.5
v 38 9 -7.5
v 38 14 -7.5
v 32 14 -7.5
v 32 9 -6.5
v 38 9 -6.5
v 38 14 -6.5
v 32 14 -6.5
f -8 -7 -6 -5
f -4 -1 -2 -3
f -8 -4 -3 -7
f -5 -6 -2 -1
f -8 -5 -1 -4
f -7 -3 -2 -6

o CF4L
usemtl WhiteBrick
v 56 0 -7.5
v 74 0 -7.5
v 74 14 -7.5
v 56 14 -7.5
v 56 0 -6.5
v 74 0 -6.5
v 74 14 -6.5
v 56 14 -6.5
f -8 -7 -6 -5
f -4 -1 -2 -3
f -8 -4 -3 -7
f -5 -6 -2 -1
f -8 -5 -1 -4
f -7 -3 -2 -6

o CF4R
usemtl WhiteBrick
v 80 0 -7.5
v 98 0 -7.5
v 98 14 -7.5
v 80 14 -7.5
v 80 0 -6.5
v 98 0 -6.5
v 98 14 -6.5
v 80 14 -6.5
f -8 -7 -6 -5
f -4 -1 -2 -3
f -8 -4 -3 -7
f -5 -6 -2 -1
f -8 -5 -1 -4
f -7 -3 -2 -6

o CF4H
usemtl WhiteBrick
v 74 9 -7.5
v 80 9 -7.5
v 80 14 -7.5
v 74 14 -7.5
v 74 9 -6.5
v 80 9 -6.5
v 80 14 -6.5
v 74 14 -6.5
f -8 -7 -6 -5
f -4 -1 -2 -3
f -8 -4 -3 -7
f -5 -6 -2 -1
f -8 -5 -1 -4
f -7 -3 -2 -6

# Terreo fundo z=7

o CB1L
usemtl WhiteBrick
v -98 0 6.5
v -80 0 6.5
v -80 14 6.5
v -98 14 6.5
v -98 0 7.5
v -80 0 7.5
v -80 14 7.5
v -98 14 7.5
f -8 -7 -6 -5
f -4 -1 -2 -3
f -8 -4 -3 -7
f -5 -6 -2 -1
f -8 -5 -1 -4
f -7 -3 -2 -6

o CB1R
usemtl WhiteBrick
v -74 0 6.5
v -56 0 6.5
v -56 14 6.5
v -74 14 6.5
v -74 0 7.5
v -56 0 7.5
v -56 14 7.5
v -74 14 7.5
f -8 -7 -6 -5
f -4 -1 -2 -3
f -8 -4 -3 -7
f -5 -6 -2 -1
f -8 -5 -1 -4
f -7 -3 -2 -6

o CB1H
usemtl WhiteBrick
v -80 9 6.5
v -74 9 6.5
v -74 14 6.5
v -80 14 6.5
v -80 9 7.5
v -74 9 7.5
v -74 14 7.5
v -80 14 7.5
f -8 -7 -6 -5
f -4 -1 -2 -3
f -8 -4 -3 -7
f -5 -6 -2 -1
f -8 -5 -1 -4
f -7 -3 -2 -6

o CB2L
usemtl WhiteBrick
v -56 0 6.5
v -38 0 6.5
v -38 14 6.5
v -56 14 6.5
v -56 0 7.5
v -38 0 7.5
v -38 14 7.5
v -56 14 7.5
f -8 -7 -6 -5
f -4 -1 -2 -3
f -8 -4 -3 -7
f -5 -6 -2 -1
f -8 -5 -1 -4
f -7 -3 -2 -6

o CB2R
usemtl WhiteBrick
v -32 0 6.5
v -14 0 6.5
v -14 14 6.5
v -32 14 6.5
v -32 0 7.5
v -14 0 7.5
v -14 14 7.5
v -32 14 7.5
f -8 -7 -6 -5
f -4 -1 -2 -3
f -8 -4 -3 -7
f -5 -6 -2 -1
f -8 -5 -1 -4
f -7 -3 -2 -6

o CB2H
usemtl WhiteBrick
v -38 9 6.5
v -32 9 6.5
v -32 14 6.5
v -38 14 6.5
v -38 9 7.5
v -32 9 7.5
v -32 14 7.5
v -38 14 7.5
f -8 -7 -6 -5
f -4 -1 -2 -3
f -8 -4 -3 -7
f -5 -6 -2 -1
f -8 -5 -1 -4
f -7 -3 -2 -6

o CB3L
usemtl WhiteBrick
v 14 0 6.5
v 32 0 6.5
v 32 14 6.5
v 14 14 6.5
v 14 0 7.5
v 32 0 7.5
v 32 14 7.5
v 14 14 7.5
f -8 -7 -6 -5
f -4 -1 -2 -3
f -8 -4 -3 -7
f -5 -6 -2 -1
f -8 -5 -1 -4
f -7 -3 -2 -6

o CB3R
usemtl WhiteBrick
v 38 0 6.5
v 56 0 6.5
v 56 14 6.5
v 38 14 6.5
v 38 0 7.5
v 56 0 7.5
v 56 14 7.5
v 38 14 7.5
f -8 -7 -6 -5
f -4 -1 -2 -3
f -8 -4 -3 -7
f -5 -6 -2 -1
f -8 -5 -1 -4
f -7 -3 -2 -6

o CB3H
usemtl WhiteBrick
v 32 9 6.5
v 38 9 6.5
v 38 14 6.5
v 32 14 6.5
v 32 9 7.5
v 38 9 7.5
v 38 14 7.5
v 32 14 7.5
f -8 -7 -6 -5
f -4 -1 -2 -3
f -8 -4 -3 -7
f -5 -6 -2 -1
f -8 -5 -1 -4
f -7 -3 -2 -6

o CB4L
usemtl WhiteBrick
v 56 0 6.5
v 74 0 6.5
v 74 14 6.5
v 56 14 6.5
v 56 0 7.5
v 74 0 7.5
v 74 14 7.5
v 56 14 7.5
f -8 -7 -6 -5
f -4 -1 -2 -3
f -8 -4 -3 -7
f -5 -6 -2 -1
f -8 -5 -1 -4
f -7 -3 -2 -6

o CB4R
usemtl WhiteBrick
v 80 0 6.5
v 98 0 6.5
v 98 14 6.5
v 80 14 6.5
v 80 0 7.5
v 98 0 7.5
v 98 14 7.5
v 80 14 7.5
f -8 -7 -6 -5
f -4 -1 -2 -3
f -8 -4 -3 -7
f -5 -6 -2 -1
f -8 -5 -1 -4
f -7 -3 -2 -6

o CB4H
usemtl WhiteBrick
v 74 9 6.5
v 80 9 6.5
v 80 14 6.5
v 74 14 6.5
v 74 9 7.5
v 80 9 7.5
v 80 14 7.5
v 74 14 7.5
f -8 -7 -6 -5
f -4 -1 -2 -3
f -8 -4 -3 -7
f -5 -6 -2 -1
f -8 -5 -1 -4
f -7 -3 -2 -6

# Segundo andar: corredor frente e fundo - paredes inteiras com portas
# Frente

o AF1L
usemtl WhiteBrick
v -98 14 -7.5
v -80 14 -7.5
v -80 28 -7.5
v -98 28 -7.5
v -98 14 -6.5
v -80 14 -6.5
v -80 28 -6.5
v -98 28 -6.5
f -8 -7 -6 -5
f -4 -1 -2 -3
f -8 -4 -3 -7
f -5 -6 -2 -1
f -8 -5 -1 -4
f -7 -3 -2 -6

o AF1R
usemtl WhiteBrick
v -74 14 -7.5
v -56 14 -7.5
v -56 28 -7.5
v -74 28 -7.5
v -74 14 -6.5
v -56 14 -6.5
v -56 28 -6.5
v -74 28 -6.5
f -8 -7 -6 -5
f -4 -1 -2 -3
f -8 -4 -3 -7
f -5 -6 -2 -1
f -8 -5 -1 -4
f -7 -3 -2 -6

o AF1H
usemtl WhiteBrick
v -80 23 -7.5
v -74 23 -7.5
v -74 28 -7.5
v -80 28 -7.5
v -80 23 -6.5
v -74 23 -6.5
v -74 28 -6.5
v -80 28 -6.5
f -8 -7 -6 -5
f -4 -1 -2 -3
f -8 -4 -3 -7
f -5 -6 -2 -1
f -8 -5 -1 -4
f -7 -3 -2 -6

o AF2L
usemtl WhiteBrick
v -56 14 -7.5
v -38 14 -7.5
v -38 28 -7.5
v -56 28 -7.5
v -56 14 -6.5
v -38 14 -6.5
v -38 28 -6.5
v -56 28 -6.5
f -8 -7 -6 -5
f -4 -1 -2 -3
f -8 -4 -3 -7
f -5 -6 -2 -1
f -8 -5 -1 -4
f -7 -3 -2 -6

o AF2R
usemtl WhiteBrick
v -32 14 -7.5
v -14 14 -7.5
v -14 28 -7.5
v -32 28 -7.5
v -32 14 -6.5
v -14 14 -6.5
v -14 28 -6.5
v -32 28 -6.5
f -8 -7 -6 -5
f -4 -1 -2 -3
f -8 -4 -3 -7
f -5 -6 -2 -1
f -8 -5 -1 -4
f -7 -3 -2 -6

o AF2H
usemtl WhiteBrick
v -38 23 -7.5
v -32 23 -7.5
v -32 28 -7.5
v -38 28 -7.5
v -38 23 -6.5
v -32 23 -6.5
v -32 28 -6.5
v -38 28 -6.5
f -8 -7 -6 -5
f -4 -1 -2 -3
f -8 -4 -3 -7
f -5 -6 -2 -1
f -8 -5 -1 -4
f -7 -3 -2 -6

o AF3L
usemtl WhiteBrick
v 14 14 -7.5
v 32 14 -7.5
v 32 28 -7.5
v 14 28 -7.5
v 14 14 -6.5
v 32 14 -6.5
v 32 28 -6.5
v 14 28 -6.5
f -8 -7 -6 -5
f -4 -1 -2 -3
f -8 -4 -3 -7
f -5 -6 -2 -1
f -8 -5 -1 -4
f -7 -3 -2 -6

o AF3R
usemtl WhiteBrick
v 38 14 -7.5
v 56 14 -7.5
v 56 28 -7.5
v 38 28 -7.5
v 38 14 -6.5
v 56 14 -6.5
v 56 28 -6.5
v 38 28 -6.5
f -8 -7 -6 -5
f -4 -1 -2 -3
f -8 -4 -3 -7
f -5 -6 -2 -1
f -8 -5 -1 -4
f -7 -3 -2 -6

o AF3H
usemtl WhiteBrick
v 32 23 -7.5
v 38 23 -7.5
v 38 28 -7.5
v 32 28 -7.5
v 32 23 -6.5
v 38 23 -6.5
v 38 28 -6.5
v 32 28 -6.5
f -8 -7 -6 -5
f -4 -1 -2 -3
f -8 -4 -3 -7
f -5 -6 -2 -1
f -8 -5 -1 -4
f -7 -3 -2 -6

o AF4L
usemtl WhiteBrick
v 56 14 -7.5
v 74 14 -7.5
v 74 28 -7.5
v 56 28 -7.5
v 56 14 -6.5
v 74 14 -6.5
v 74 28 -6.5
v 56 28 -6.5
f -8 -7 -6 -5
f -4 -1 -2 -3
f -8 -4 -3 -7
f -5 -6 -2 -1
f -8 -5 -1 -4
f -7 -3 -2 -6

o AF4R
usemtl WhiteBrick
v 80 14 -7.5
v 98 14 -7.5
v 98 28 -7.5
v 80 28 -7.5
v 80 14 -6.5
v 98 14 -6.5
v 98 28 -6.5
v 80 28 -6.5
f -8 -7 -6 -5
f -4 -1 -2 -3
f -8 -4 -3 -7
f -5 -6 -2 -1
f -8 -5 -1 -4
f -7 -3 -2 -6

o AF4H
usemtl WhiteBrick
v 74 23 -7.5
v 80 23 -7.5
v 80 28 -7.5
v 74 28 -7.5
v 74 23 -6.5
v 80 23 -6.5
v 80 28 -6.5
v 74 28 -6.5
f -8 -7 -6 -5
f -4 -1 -2 -3
f -8 -4 -3 -7
f -5 -6 -2 -1
f -8 -5 -1 -4
f -7 -3 -2 -6

# Fundo segundo andar

o AB1L
usemtl WhiteBrick
v -98 14 6.5
v -80 14 6.5
v -80 28 6.5
v -98 28 6.5
v -98 14 7.5
v -80 14 7.5
v -80 28 7.5
v -98 28 7.5
f -8 -7 -6 -5
f -4 -1 -2 -3
f -8 -4 -3 -7
f -5 -6 -2 -1
f -8 -5 -1 -4
f -7 -3 -2 -6

o AB1R
usemtl WhiteBrick
v -74 14 6.5
v -56 14 6.5
v -56 28 6.5
v -74 28 6.5
v -74 14 7.5
v -56 14 7.5
v -56 28 7.5
v -74 28 7.5
f -8 -7 -6 -5
f -4 -1 -2 -3
f -8 -4 -3 -7
f -5 -6 -2 -1
f -8 -5 -1 -4
f -7 -3 -2 -6

o AB1H
usemtl WhiteBrick
v -80 23 6.5
v -74 23 6.5
v -74 28 6.5
v -80 28 6.5
v -80 23 7.5
v -74 23 7.5
v -74 28 7.5
v -80 28 7.5
f -8 -7 -6 -5
f -4 -1 -2 -3
f -8 -4 -3 -7
f -5 -6 -2 -1
f -8 -5 -1 -4
f -7 -3 -2 -6

o AB2L
usemtl WhiteBrick
v -56 14 6.5
v -38 14 6.5
v -38 28 6.5
v -56 28 6.5
v -56 14 7.5
v -38 14 7.5
v -38 28 7.5
v -56 28 7.5
f -8 -7 -6 -5
f -4 -1 -2 -3
f -8 -4 -3 -7
f -5 -6 -2 -1
f -8 -5 -1 -4
f -7 -3 -2 -6

o AB2R
usemtl WhiteBrick
v -32 14 6.5
v -14 14 6.5
v -14 28 6.5
v -32 28 6.5
v -32 14 7.5
v -14 14 7.5
v -14 28 7.5
v -32 28 7.5
f -8 -7 -6 -5
f -4 -1 -2 -3
f -8 -4 -3 -7
f -5 -6 -2 -1
f -8 -5 -1 -4
f -7 -3 -2 -6

o AB2H
usemtl WhiteBrick
v -38 23 6.5
v -32 23 6.5
v -32 28 6.5
v -38 28 6.5
v -38 23 7.5
v -32 23 7.5
v -32 28 7.5
v -38 28 7.5
f -8 -7 -6 -5
f -4 -1 -2 -3
f -8 -4 -3 -7
f -5 -6 -2 -1
f -8 -5 -1 -4
f -7 -3 -2 -6

o AB3L
usemtl WhiteBrick
v 14 14 6.5
v 32 14 6.5
v 32 28 6.5
v 14 28 6.5
v 14 14 7.5
v 32 14 7.5
v 32 28 7.5
v 14 28 7.5
f -8 -7 -6 -5
f -4 -1 -2 -3
f -8 -4 -3 -7
f -5 -6 -2 -1
f -8 -5 -1 -4
f -7 -3 -2 -6

o AB3R
usemtl WhiteBrick
v 38 14 6.5
v 56 14 6.5
v 56 28 6.5
v 38 28 6.5
v 38 14 7.5
v 56 14 7.5
v 56 28 7.5
v 38 28 7.5
f -8 -7 -6 -5
f -4 -1 -2 -3
f -8 -4 -3 -7
f -5 -6 -2 -1
f -8 -5 -1 -4
f -7 -3 -2 -6

o AB3H
usemtl WhiteBrick
v 32 23 6.5
v 38 23 6.5
v 38 28 6.5
v 32 28 6.5
v 32 23 7.5
v 38 23 7.5
v 38 28 7.5
v 32 28 7.5
f -8 -7 -6 -5
f -4 -1 -2 -3
f -8 -4 -3 -7
f -5 -6 -2 -1
f -8 -5 -1 -4
f -7 -3 -2 -6

o AB4L
usemtl WhiteBrick
v 56 14 6.5
v 74 14 6.5
v 74 28 6.5
v 56 28 6.5
v 56 14 7.5
v 74 14 7.5
v 74 28 7.5
v 56 28 7.5
f -8 -7 -6 -5
f -4 -1 -2 -3
f -8 -4 -3 -7
f -5 -6 -2 -1
f -8 -5 -1 -4
f -7 -3 -2 -6

o AB4R
usemtl WhiteBrick
v 80 14 6.5
v 98 14 6.5
v 98 28 6.5
v 80 28 6.5
v 80 14 7.5
v 98 14 7.5
v 98 28 7.5
v 80 28 7.5
f -8 -7 -6 -5
f -4 -1 -2 -3
f -8 -4 -3 -7
f -5 -6 -2 -1
f -8 -5 -1 -4
f -7 -3 -2 -6

o AB4H
usemtl WhiteBrick
v 74 23 6.5
v 80 23 6.5
v 80 28 6.5
v 74 28 6.5
v 74 23 7.5
v 80 23 7.5
v 80 28 7.5
v 74 28 7.5
f -8 -7 -6 -5
f -4 -1 -2 -3
f -8 -4 -3 -7
f -5 -6 -2 -1
f -8 -5 -1 -4
f -7 -3 -2 -6

# Janelas externas - placas de vidro, nunca no corredor
# frente térreo

o WinF_Ground
usemtl Glass
v -90 4 -43.1
v -83 4 -43.1
v -83 9 -43.1
v -90 9 -43.1
v -90 4 -43.0
v -83 4 -43.0
v -83 9 -43.0
v -90 9 -43.0
f -8 -7 -6 -5
f -4 -1 -2 -3
f -8 -4 -3 -7
f -5 -6 -2 -1
f -8 -5 -1 -4
f -7 -3 -2 -6
v -71 4 -43.1
v -64 4 -43.1
v -64 9 -43.1
v -71 9 -43.1
v -71 4 -43.0
v -64 4 -43.0
v -64 9 -43.0
v -71 9 -43.0
f -8 -7 -6 -5
f -4 -1 -2 -3
f -8 -4 -3 -7
f -5 -6 -2 -1
f -8 -5 -1 -4
f -7 -3 -2 -6
v -48 4 -43.1
v -41 4 -43.1
v -41 9 -43.1
v -48 9 -43.1
v -48 4 -43.0
v -41 4 -43.0
v -41 9 -43.0
v -48 9 -43.0
f -8 -7 -6 -5
f -4 -1 -2 -3
f -8 -4 -3 -7
f -5 -6 -2 -1
f -8 -5 -1 -4
f -7 -3 -2 -6
v -29 4 -43.1
v -22 4 -43.1
v -22 9 -43.1
v -29 9 -43.1
v -29 4 -43.0
v -22 4 -43.0
v -22 9 -43.0
v -29 9 -43.0
f -8 -7 -6 -5
f -4 -1 -2 -3
f -8 -4 -3 -7
f -5 -6 -2 -1
f -8 -5 -1 -4
f -7 -3 -2 -6
v 22 4 -43.1
v 29 4 -43.1
v 29 9 -43.1
v 22 9 -43.1
v 22 4 -43.0
v 29 4 -43.0
v 29 9 -43.0
v 22 9 -43.0
f -8 -7 -6 -5
f -4 -1 -2 -3
f -8 -4 -3 -7
f -5 -6 -2 -1
f -8 -5 -1 -4
f -7 -3 -2 -6
v 41 4 -43.1
v 48 4 -43.1
v 48 9 -43.1
v 41 9 -43.1
v 41 4 -43.0
v 48 4 -43.0
v 48 9 -43.0
v 41 9 -43.0
f -8 -7 -6 -5
f -4 -1 -2 -3
f -8 -4 -3 -7
f -5 -6 -2 -1
f -8 -5 -1 -4
f -7 -3 -2 -6
v 64 4 -43.1
v 71 4 -43.1
v 71 9 -43.1
v 64 9 -43.1
v 64 4 -43.0
v 71 4 -43.0
v 71 9 -43.0
v 64 9 -43.0
f -8 -7 -6 -5
f -4 -1 -2 -3
f -8 -4 -3 -7
f -5 -6 -2 -1
f -8 -5 -1 -4
f -7 -3 -2 -6
v 83 4 -43.1
v 90 4 -43.1
v 90 9 -43.1
v 83 9 -43.1
v 83 4 -43.0
v 90 4 -43.0
v 90 9 -43.0
v 83 9 -43.0
f -8 -7 -6 -5
f -4 -1 -2 -3
f -8 -4 -3 -7
f -5 -6 -2 -1
f -8 -5 -1 -4
f -7 -3 -2 -6

# frente andar 2 - mesmas posicoes em y 18..23

o WinF_Upper
usemtl Glass
v -90 18 -43.1
v -83 18 -43.1
v -83 23 -43.1
v -90 23 -43.1
v -90 18 -43.0
v -83 18 -43.0
v -83 23 -43.0
v -90 23 -43.0
f -8 -7 -6 -5
f -4 -1 -2 -3
f -8 -4 -3 -7
f -5 -6 -2 -1
f -8 -5 -1 -4
f -7 -3 -2 -6
v -71 18 -43.1
v -64 18 -43.1
v -64 23 -43.1
v -71 23 -43.1
v -71 18 -43.0
v -64 18 -43.0
v -64 23 -43.0
v -71 23 -43.0
f -8 -7 -6 -5
f -4 -1 -2 -3
f -8 -4 -3 -7
f -5 -6 -2 -1
f -8 -5 -1 -4
f -7 -3 -2 -6
v -48 18 -43.1
v -41 18 -43.1
v -41 23 -43.1
v -48 23 -43.1
v -48 18 -43.0
v -41 18 -43.0
v -41 23 -43.0
v -48 23 -43.0
f -8 -7 -6 -5
f -4 -1 -2 -3
f -8 -4 -3 -7
f -5 -6 -2 -1
f -8 -5 -1 -4
f -7 -3 -2 -6
v -29 18 -43.1
v -22 18 -43.1
v -22 23 -43.1
v -29 23 -43.1
v -29 18 -43.0
v -22 18 -43.0
v -22 23 -43.0
v -29 23 -43.0
f -8 -7 -6 -5
f -4 -1 -2 -3
f -8 -4 -3 -7
f -5 -6 -2 -1
f -8 -5 -1 -4
f -7 -3 -2 -6
v 22 18 -43.1
v 29 18 -43.1
v 29 23 -43.1
v 22 23 -43.1
v 22 18 -43.0
v 29 18 -43.0
v 29 23 -43.0
v 22 23 -43.0
f -8 -7 -6 -5
f -4 -1 -2 -3
f -8 -4 -3 -7
f -5 -6 -2 -1
f -8 -5 -1 -4
f -7 -3 -2 -6
v 41 18 -43.1
v 48 18 -43.1
v 48 23 -43.1
v 41 23 -43.1
v 41 18 -43.0
v 48 18 -43.0
v 48 23 -43.0
v 41 23 -43.0
f -8 -7 -6 -5
f -4 -1 -2 -3
f -8 -4 -3 -7
f -5 -6 -2 -1
f -8 -5 -1 -4
f -7 -3 -2 -6
v 64 18 -43.1
v 71 18 -43.1
v 71 23 -43.1
v 64 23 -43.1
v 64 18 -43.0
v 71 18 -43.0
v 71 23 -43.0
v 64 23 -43.0
f -8 -7 -6 -5
f -4 -1 -2 -3
f -8 -4 -3 -7
f -5 -6 -2 -1
f -8 -5 -1 -4
f -7 -3 -2 -6
v 83 18 -43.1
v 90 18 -43.1
v 90 23 -43.1
v 83 23 -43.1
v 83 18 -43.0
v 90 18 -43.0
v 90 23 -43.0
v 83 23 -43.0
f -8 -7 -6 -5
f -4 -1 -2 -3
f -8 -4 -3 -7
f -5 -6 -2 -1
f -8 -5 -1 -4
f -7 -3 -2 -6

# Janelas traseiras simplificadas: 1 larga por sala, espacadas

o WinBack
usemtl Glass
v -89 4 43.0
v -65 4 43.0
v -65 9 43.0
v -89 9 43.0
v -89 4 43.1
v -65 4 43.1
v -65 9 43.1
v -89 9 43.1
f -8 -7 -6 -5
f -4 -1 -2 -3
f -8 -4 -3 -7
f -5 -6 -2 -1
f -8 -5 -1 -4
f -7 -3 -2 -6
v -47 4 43.0
v -23 4 43.0
v -23 9 43.0
v -47 9 43.0
v -47 4 43.1
v -23 4 43.1
v -23 9 43.1
v -47 9 43.1
f -8 -7 -6 -5
f -4 -1 -2 -3
f -8 -4 -3 -7
f -5 -6 -2 -1
f -8 -5 -1 -4
f -7 -3 -2 -6
v 23 4 43.0
v 47 4 43.0
v 47 9 43.0
v 23 9 43.0
v 23 4 43.1
v 47 4 43.1
v 47 9 43.1
v 23 9 43.1
f -8 -7 -6 -5
f -4 -1 -2 -3
f -8 -4 -3 -7
f -5 -6 -2 -1
f -8 -5 -1 -4
f -7 -3 -2 -6
v 65 4 43.0
v 89 4 43.0
v 89 9 43.0
v 65 9 43.0
v 65 4 43.1
v 89 4 43.1
v 89 9 43.1
v 65 9 43.1
f -8 -7 -6 -5
f -4 -1 -2 -3
f -8 -4 -3 -7
f -5 -6 -2 -1
f -8 -5 -1 -4
f -7 -3 -2 -6
v -89 18 43.0
v -65 18 43.0
v -65 23 43.0
v -89 23 43.0
v -89 18 43.1
v -65 18 43.1
v -65 23 43.1
v -89 23 43.1
f -8 -7 -6 -5
f -4 -1 -2 -3
f -8 -4 -3 -7
f -5 -6 -2 -1
f -8 -5 -1 -4
f -7 -3 -2 -6
v -47 18 43.0
v -23 18 43.0
v -23 23 43.0
v -47 23 43.0
v -47 18 43.1
v -23 18 43.1
v -23 23 43.1
v -47 23 43.1
f -8 -7 -6 -5
f -4 -1 -2 -3
f -8 -4 -3 -7
f -5 -6 -2 -1
f -8 -5 -1 -4
f -7 -3 -2 -6
v 23 18 43.0
v 47 18 43.0
v 47 23 43.0
v 23 23 43.0
v 23 18 43.1
v 47 18 43.1
v 47 23 43.1
v 23 23 43.1
f -8 -7 -6 -5
f -4 -1 -2 -3
f -8 -4 -3 -7
f -5 -6 -2 -1
f -8 -5 -1 -4
f -7 -3 -2 -6
v 65 18 43.0
v 89 18 43.0
v 89 23 43.0
v 65 23 43.0
v 65 18 43.1
v 89 18 43.1
v 89 23 43.1
v 65 23 43.1
f -8 -7 -6 -5
f -4 -1 -2 -3
f -8 -4 -3 -7
f -5 -6 -2 -1
f -8 -5 -1 -4
f -7 -3 -2 -6

# Varanda central

o BalconyFloor
usemtl Concrete
v -18 13.5 -54
v 18 13.5 -54
v 18 14.2 -54
v -18 14.2 -54
v -18 13.5 -43
v 18 13.5 -43
v 18 14.2 -43
v -18 14.2 -43
f -8 -7 -6 -5
f -4 -1 -2 -3
f -8 -4 -3 -7
f -5 -6 -2 -1
f -8 -5 -1 -4
f -7 -3 -2 -6

o BalconyRailFront
usemtl Metal
v -18 14 -54
v 18 14 -54
v 18 17.5 -54
v -18 17.5 -54
v -18 14 -53.6
v 18 14 -53.6
v 18 17.5 -53.6
v -18 17.5 -53.6
f -8 -7 -6 -5
f -4 -1 -2 -3
f -8 -4 -3 -7
f -5 -6 -2 -1
f -8 -5 -1 -4
f -7 -3 -2 -6

o BalconyRailLeft
usemtl Metal
v -18 14 -54
v -17.6 14 -54
v -17.6 17.5 -54
v -18 17.5 -54
v -18 14 -43
v -17.6 14 -43
v -17.6 17.5 -43
v -18 17.5 -43
f -8 -7 -6 -5
f -4 -1 -2 -3
f -8 -4 -3 -7
f -5 -6 -2 -1
f -8 -5 -1 -4
f -7 -3 -2 -6

o BalconyRailRight
usemtl Metal
v 17.6 14 -54
v 18 14 -54
v 18 17.5 -54
v 17.6 17.5 -54
v 17.6 14 -43
v 18 14 -43
v 18 17.5 -43
v 17.6 17.5 -43
f -8 -7 -6 -5
f -4 -1 -2 -3
f -8 -4 -3 -7
f -5 -6 -2 -1
f -8 -5 -1 -4
f -7 -3 -2 -6

o BalconyPillarL
usemtl WhiteBrick
v -16 0 -52
v -14 0 -52
v -14 14 -52
v -16 14 -52
v -16 0 -50
v -14 0 -50
v -14 14 -50
v -16 14 -50
f -8 -7 -6 -5
f -4 -1 -2 -3
f -8 -4 -3 -7
f -5 -6 -2 -1
f -8 -5 -1 -4
f -7 -3 -2 -6

o BalconyPillarR
usemtl WhiteBrick
v 14 0 -52
v 16 0 -52
v 16 14 -52
v 14 14 -52
v 14 0 -50
v 16 0 -50
v 16 14 -50
v 14 14 -50
f -8 -7 -6 -5
f -4 -1 -2 -3
f -8 -4 -3 -7
f -5 -6 -2 -1
f -8 -5 -1 -4
f -7 -3 -2 -6

# Escada U - 12 degraus subida e 12 volta
usemtl Concrete

o Stair01
v -10 0 -20
v -2 0 -20
v -2 0.58 -20
v -10 0.58 -20
v -10 0 -18.5
v -2 0 -18.5
v -2 0.58 -18.5
v -10 0.58 -18.5
f -8 -7 -6 -5
f -4 -1 -2 -3
f -8 -4 -3 -7
f -5 -6 -2 -1
f -8 -5 -1 -4
f -7 -3 -2 -6

o Stair02
v -10 0 -18.5
v -2 0 -18.5
v -2 1.16 -18.5
v -10 1.16 -18.5
v -10 0 -17
v -2 0 -17
v -2 1.16 -17
v -10 1.16 -17
f -8 -7 -6 -5
f -4 -1 -2 -3
f -8 -4 -3 -7
f -5 -6 -2 -1
f -8 -5 -1 -4
f -7 -3 -2 -6

o Stair03
v -10 0 -17
v -2 0 -17
v -2 1.75 -17
v -10 1.75 -17
v -10 0 -15.5
v -2 0 -15.5
v -2 1.75 -15.5
v -10 1.75 -15.5
f -8 -7 -6 -5
f -4 -1 -2 -3
f -8 -4 -3 -7
f -5 -6 -2 -1
f -8 -5 -1 -4
f -7 -3 -2 -6

o Stair04
v -10 0 -15.5
v -2 0 -15.5
v -2 2.33 -15.5
v -10 2.33 -15.5
v -10 0 -14
v -2 0 -14
v -2 2.33 -14
v -10 2.33 -14
f -8 -7 -6 -5
f -4 -1 -2 -3
f -8 -4 -3 -7
f -5 -6 -2 -1
f -8 -5 -1 -4
f -7 -3 -2 -6

o Stair05
v -10 0 -14
v -2 0 -14
v -2 2.92 -14
v -10 2.92 -14
v -10 0 -12.5
v -2 0 -12.5
v -2 2.92 -12.5
v -10 2.92 -12.5
f -8 -7 -6 -5
f -4 -1 -2 -3
f -8 -4 -3 -7
f -5 -6 -2 -1
f -8 -5 -1 -4
f -7 -3 -2 -6

o Stair06
v -10 0 -12.5
v -2 0 -12.5
v -2 3.50 -12.5
v -10 3.50 -12.5
v -10 0 -11
v -2 0 -11
v -2 3.50 -11
v -10 3.50 -11
f -8 -7 -6 -5
f -4 -1 -2 -3
f -8 -4 -3 -7
f -5 -6 -2 -1
f -8 -5 -1 -4
f -7 -3 -2 -6

o Stair07
v -10 0 -11
v -2 0 -11
v -2 4.08 -11
v -10 4.08 -11
v -10 0 -9.5
v -2 0 -9.5
v -2 4.08 -9.5
v -10 4.08 -9.5
f -8 -7 -6 -5
f -4 -1 -2 -3
f -8 -4 -3 -7
f -5 -6 -2 -1
f -8 -5 -1 -4
f -7 -3 -2 -6

o Stair08
v -10 0 -9.5
v -2 0 -9.5
v -2 4.67 -9.5
v -10 4.67 -9.5
v -10 0 -8
v -2 0 -8
v -2 4.67 -8
v -10 4.67 -8
f -8 -7 -6 -5
f -4 -1 -2 -3
f -8 -4 -3 -7
f -5 -6 -2 -1
f -8 -5 -1 -4
f -7 -3 -2 -6

o Stair09
v -10 0 -8
v -2 0 -8
v -2 5.25 -8
v -10 5.25 -8
v -10 0 -6.5
v -2 0 -6.5
v -2 5.25 -6.5
v -10 5.25 -6.5
f -8 -7 -6 -5
f -4 -1 -2 -3
f -8 -4 -3 -7
f -5 -6 -2 -1
f -8 -5 -1 -4
f -7 -3 -2 -6

o Stair10
v -10 0 -6.5
v -2 0 -6.5
v -2 5.83 -6.5
v -10 5.83 -6.5
v -10 0 -5
v -2 0 -5
v -2 5.83 -5
v -10 5.83 -5
f -8 -7 -6 -5
f -4 -1 -2 -3
f -8 -4 -3 -7
f -5 -6 -2 -1
f -8 -5 -1 -4
f -7 -3 -2 -6

o Stair11
v -10 0 -5
v -2 0 -5
v -2 6.42 -5
v -10 6.42 -5
v -10 0 -3.5
v -2 0 -3.5
v -2 6.42 -3.5
v -10 6.42 -3.5
f -8 -7 -6 -5
f -4 -1 -2 -3
f -8 -4 -3 -7
f -5 -6 -2 -1
f -8 -5 -1 -4
f -7 -3 -2 -6

o Stair12
v -10 0 -3.5
v -2 0 -3.5
v -2 7 -3.5
v -10 7 -3.5
v -10 0 -2
v -2 0 -2
v -2 7 -2
v -10 7 -2
f -8 -7 -6 -5
f -4 -1 -2 -3
f -8 -4 -3 -7
f -5 -6 -2 -1
f -8 -5 -1 -4
f -7 -3 -2 -6

o StairLanding
v -10 6.7 -2
v 10 6.7 -2
v 10 7.2 -2
v -10 7.2 -2
v -10 6.7 2
v 10 6.7 2
v 10 7.2 2
v -10 7.2 2
f -8 -7 -6 -5
f -4 -1 -2 -3
f -8 -4 -3 -7
f -5 -6 -2 -1
f -8 -5 -1 -4
f -7 -3 -2 -6

# Volta da escada - x 2..10, z -2 -> -20

o Stair13
v 2 0 -3.5
v 10 0 -3.5
v 10 7.58 -3.5
v 2 7.58 -3.5
v 2 0 -2
v 10 0 -2
v 10 7.58 -2
v 2 7.58 -2
f -8 -7 -6 -5
f -4 -1 -2 -3
f -8 -4 -3 -7
f -5 -6 -2 -1
f -8 -5 -1 -4
f -7 -3 -2 -6

o Stair14
v 2 0 -5
v 10 0 -5
v 10 8.17 -5
v 2 8.17 -5
v 2 0 -3.5
v 10 0 -3.5
v 10 8.17 -3.5
v 2 8.17 -3.5
f -8 -7 -6 -5
f -4 -1 -2 -3
f -8 -4 -3 -7
f -5 -6 -2 -1
f -8 -5 -1 -4
f -7 -3 -2 -6

o Stair15
v 2 0 -6.5
v 10 0 -6.5
v 10 8.75 -6.5
v 2 8.75 -6.5
v 2 0 -5
v 10 0 -5
v 10 8.75 -5
v 2 8.75 -5
f -8 -7 -6 -5
f -4 -1 -2 -3
f -8 -4 -3 -7
f -5 -6 -2 -1
f -8 -5 -1 -4
f -7 -3 -2 -6

o Stair16
v 2 0 -8
v 10 0 -8
v 10 9.33 -8
v 2 9.33 -8
v 2 0 -6.5
v 10 0 -6.5
v 10 9.33 -6.5
v 2 9.33 -6.5
f -8 -7 -6 -5
f -4 -1 -2 -3
f -8 -4 -3 -7
f -5 -6 -2 -1
f -8 -5 -1 -4
f -7 -3 -2 -6

o Stair17
v 2 0 -9.5
v 10 0 -9.5
v 10 9.92 -9.5
v 2 9.92 -9.5
v 2 0 -8
v 10 0 -8
v 10 9.92 -8
v 2 9.92 -8
f -8 -7 -6 -5
f -4 -1 -2 -3
f -8 -4 -3 -7
f -5 -6 -2 -1
f -8 -5 -1 -4
f -7 -3 -2 -6

o Stair18
v 2 0 -11
v 10 0 -11
v 10 10.5 -11
v 2 10.5 -11
v 2 0 -9.5
v 10 0 -9.5
v 10 10.5 -9.5
v 2 10.5 -9.5
f -8 -7 -6 -5
f -4 -1 -2 -3
f -8 -4 -3 -7
f -5 -6 -2 -1
f -8 -5 -1 -4
f -7 -3 -2 -6

o Stair19
v 2 0 -12.5
v 10 0 -12.5
v 10 11.08 -12.5
v 2 11.08 -12.5
v 2 0 -11
v 10 0 -11
v 10 11.08 -11
v 2 11.08 -11
f -8 -7 -6 -5
f -4 -1 -2 -3
f -8 -4 -3 -7
f -5 -6 -2 -1
f -8 -5 -1 -4
f -7 -3 -2 -6

o Stair20
v 2 0 -14
v 10 0 -14
v 10 11.67 -14
v 2 11.67 -14
v 2 0 -12.5
v 10 0 -12.5
v 10 11.67 -12.5
v 2 11.67 -12.5
f -8 -7 -6 -5
f -4 -1 -2 -3
f -8 -4 -3 -7
f -5 -6 -2 -1
f -8 -5 -1 -4
f -7 -3 -2 -6

o Stair21
v 2 0 -15.5
v 10 0 -15.5
v 10 12.25 -15.5
v 2 12.25 -15.5
v 2 0 -14
v 10 0 -14
v 10 12.25 -14
v 2 12.25 -14
f -8 -7 -6 -5
f -4 -1 -2 -3
f -8 -4 -3 -7
f -5 -6 -2 -1
f -8 -5 -1 -4
f -7 -3 -2 -6

o Stair22
v 2 0 -17
v 10 0 -17
v 10 12.83 -17
v 2 12.83 -17
v 2 0 -15.5
v 10 0 -15.5
v 10 12.83 -15.5
v 2 12.83 -15.5
f -8 -7 -6 -5
f -4 -1 -2 -3
f -8 -4 -3 -7
f -5 -6 -2 -1
f -8 -5 -1 -4
f -7 -3 -2 -6

o Stair23
v 2 0 -18.5
v 10 0 -18.5
v 10 13.42 -18.5
v 2 13.42 -18.5
v 2 0 -17
v 10 0 -17
v 10 13.42 -17
v 2 13.42 -17
f -8 -7 -6 -5
f -4 -1 -2 -3
f -8 -4 -3 -7
f -5 -6 -2 -1
f -8 -5 -1 -4
f -7 -3 -2 -6

o Stair24
v 2 0 -20
v 10 0 -20
v 10 14 -20
v 2 14 -20
v 2 0 -18.5
v 10 0 -18.5
v 10 14 -18.5
v 2 14 -18.5
f -8 -7 -6 -5
f -4 -1 -2 -3
f -8 -4 -3 -7
f -5 -6 -2 -1
f -8 -5 -1 -4
f -7 -3 -2 -6

# Telhados inclinados reais - alas esquerda e direita

o RoofLeftFront
usemtl RoofTerracotta
v -100 28.0 -45
v -12 28.0 -45
v -12 33.8 0
v -100 33.8 0
v -100 28.5 -45
v -12 28.5 -45
v -12 34.3 0
v -100 34.3 0
f -8 -7 -6 -5
f -4 -1 -2 -3
f -8 -4 -3 -7
f -5 -6 -2 -1
f -8 -5 -1 -4
f -7 -3 -2 -6

o RoofLeftBack
usemtl RoofTerracotta
v -100 33.8 0
v -12 33.8 0
v -12 28.0 45
v -100 28.0 45
v -100 34.3 0
v -12 34.3 0
v -12 28.5 45
v -100 28.5 45
f -8 -7 -6 -5
f -4 -1 -2 -3
f -8 -4 -3 -7
f -5 -6 -2 -1
f -8 -5 -1 -4
f -7 -3 -2 -6

o RoofRightFront
usemtl RoofTerracotta
v 12 28.0 -45
v 100 28.0 -45
v 100 33.8 0
v 12 33.8 0
v 12 28.5 -45
v 100 28.5 -45
v 100 34.3 0
v 12 34.3 0
f -8 -7 -6 -5
f -4 -1 -2 -3
f -8 -4 -3 -7
f -5 -6 -2 -1
f -8 -5 -1 -4
f -7 -3 -2 -6

o RoofRightBack
usemtl RoofTerracotta
v 12 33.8 0
v 100 33.8 0
v 100 28.0 45
v 12 28.0 45
v 12 34.3 0
v 100 34.3 0
v 100 28.5 45
v 12 28.5 45
f -8 -7 -6 -5
f -4 -1 -2 -3
f -8 -4 -3 -7
f -5 -6 -2 -1
f -8 -5 -1 -4
f -7 -3 -2 -6

# Torre central e telhado central

o TowerFront
usemtl WhiteBrick
v -16 28 -31
v 16 28 -31
v 16 34 -31
v -16 34 -31
v -16 28 -30
v 16 28 -30
v 16 34 -30
v -16 34 -30
f -8 -7 -6 -5
f -4 -1 -2 -3
f -8 -4 -3 -7
f -5 -6 -2 -1
f -8 -5 -1 -4
f -7 -3 -2 -6

o TowerBack
usemtl WhiteBrick
v -16 28 30
v 16 28 30
v 16 34 30
v -16 34 30
v -16 28 31
v 16 28 31
v 16 34 31
v -16 34 31
f -8 -7 -6 -5
f -4 -1 -2 -3
f -8 -4 -3 -7
f -5 -6 -2 -1
f -8 -5 -1 -4
f -7 -3 -2 -6

o TowerLeft
usemtl WhiteBrick
v -16 28 -31
v -15 28 -31
v -15 34 -31
v -16 34 -31
v -16 28 31
v -15 28 31
v -15 34 31
v -16 34 31
f -8 -7 -6 -5
f -4 -1 -2 -3
f -8 -4 -3 -7
f -5 -6 -2 -1
f -8 -5 -1 -4
f -7 -3 -2 -6

o TowerRight
usemtl WhiteBrick
v 15 28 -31
v 16 28 -31
v 16 34 -31
v 15 34 -31
v 15 28 31
v 16 28 31
v 16 34 31
v 15 34 31
f -8 -7 -6 -5
f -4 -1 -2 -3
f -8 -4 -3 -7
f -5 -6 -2 -1
f -8 -5 -1 -4
f -7 -3 -2 -6

o RoofCoreFront
usemtl RoofTerracotta
v -18 34 -33
v 18 34 -33
v 18 38.8 0
v -18 38.8 0
v -18 34.4 -33
v 18 34.4 -33
v 18 39.2 0
v -18 39.2 0
f -8 -7 -6 -5
f -4 -1 -2 -3
f -8 -4 -3 -7
f -5 -6 -2 -1
f -8 -5 -1 -4
f -7 -3 -2 -6

o RoofCoreBack
usemtl RoofTerracotta
v -18 38.8 0
v 18 38.8 0
v 18 34 33
v -18 34 33
v -18 39.2 0
v 18 39.2 0
v 18 34.4 33
v -18 34.4 33
f -8 -7 -6 -5
f -4 -1 -2 -3
f -8 -4 -3 -7
f -5 -6 -2 -1
f -8 -5 -1 -4
f -7 -3 -2 -6

# Faixa verde frontal e traseira, visual

o GreenFront
usemtl Green
v -98 0 -43.2
v 98 0 -43.2
v 98 2 -43.2
v -98 2 -43.2
v -98 0 -43.1
v 98 0 -43.1
v 98 2 -43.1
v -98 2 -43.1
f -8 -7 -6 -5
f -4 -1 -2 -3
f -8 -4 -3 -7
f -5 -6 -2 -1
f -8 -5 -1 -4
f -7 -3 -2 -6

o GreenBack
usemtl Green
v -98 0 43.1
v 98 0 43.1
v 98 2 43.1
v -98 2 43.1
v -98 0 43.2
v 98 0 43.2
v 98 2 43.2
v -98 2 43.2
f -8 -7 -6 -5
f -4 -1 -2 -3
f -8 -4 -3 -7
f -5 -6 -2 -1
f -8 -5 -1 -4
f -7 -3 -2 -6

# 16 cadeiras de teste: cada uma assento + encosto simplificados
usemtl Chair
# terreo frente
o Chair_TF1
v -78.1 2 -26
v -75.9 2 -26
v -75.9 2.25 -26
v -78.1 2.25 -26
v -78.1 2 -24
v -75.9 2 -24
v -75.9 2.25 -24
v -78.1 2.25 -24
f -8 -7 -6 -5
f -4 -1 -2 -3
f -8 -4 -3 -7
f -5 -6 -2 -1
f -8 -5 -1 -4
f -7 -3 -2 -6
v -78.1 2.25 -24.1
v -75.9 2.25 -24.1
v -75.9 4.25 -24.1
v -78.1 4.25 -24.1
v -78.1 2.25 -23.85
v -75.9 2.25 -23.85
v -75.9 4.25 -23.85
v -78.1 4.25 -23.85
f -8 -7 -6 -5
f -4 -1 -2 -3
f -8 -4 -3 -7
f -5 -6 -2 -1
f -8 -5 -1 -4
f -7 -3 -2 -6

o Chair_TF2
v -36.1 2 -26
v -33.9 2 -26
v -33.9 2.25 -26
v -36.1 2.25 -26
v -36.1 2 -24
v -33.9 2 -24
v -33.9 2.25 -24
v -36.1 2.25 -24
f -8 -7 -6 -5
f -4 -1 -2 -3
f -8 -4 -3 -7
f -5 -6 -2 -1
f -8 -5 -1 -4
f -7 -3 -2 -6
v -36.1 2.25 -24.1
v -33.9 2.25 -24.1
v -33.9 4.25 -24.1
v -36.1 4.25 -24.1
v -36.1 2.25 -23.85
v -33.9 2.25 -23.85
v -33.9 4.25 -23.85
v -36.1 4.25 -23.85
f -8 -7 -6 -5
f -4 -1 -2 -3
f -8 -4 -3 -7
f -5 -6 -2 -1
f -8 -5 -1 -4
f -7 -3 -2 -6

o Chair_TF3
v 33.9 2 -26
v 36.1 2 -26
v 36.1 2.25 -26
v 33.9 2.25 -26
v 33.9 2 -24
v 36.1 2 -24
v 36.1 2.25 -24
v 33.9 2.25 -24
f -8 -7 -6 -5
f -4 -1 -2 -3
f -8 -4 -3 -7
f -5 -6 -2 -1
f -8 -5 -1 -4
f -7 -3 -2 -6
v 33.9 2.25 -24.1
v 36.1 2.25 -24.1
v 36.1 4.25 -24.1
v 33.9 4.25 -24.1
v 33.9 2.25 -23.85
v 36.1 2.25 -23.85
v 36.1 4.25 -23.85
v 33.9 4.25 -23.85
f -8 -7 -6 -5
f -4 -1 -2 -3
f -8 -4 -3 -7
f -5 -6 -2 -1
f -8 -5 -1 -4
f -7 -3 -2 -6

o Chair_TF4
v 75.9 2 -26
v 78.1 2 -26
v 78.1 2.25 -26
v 75.9 2.25 -26
v 75.9 2 -24
v 78.1 2 -24
v 78.1 2.25 -24
v 75.9 2.25 -24
f -8 -7 -6 -5
f -4 -1 -2 -3
f -8 -4 -3 -7
f -5 -6 -2 -1
f -8 -5 -1 -4
f -7 -3 -2 -6
v 75.9 2.25 -24.1
v 78.1 2.25 -24.1
v 78.1 4.25 -24.1
v 75.9 4.25 -24.1
v 75.9 2.25 -23.85
v 78.1 2.25 -23.85
v 78.1 4.25 -23.85
v 75.9 4.25 -23.85
f -8 -7 -6 -5
f -4 -1 -2 -3
f -8 -4 -3 -7
f -5 -6 -2 -1
f -8 -5 -1 -4
f -7 -3 -2 -6
# terreo fundo

o Chair_TB1
v -78.1 2 24
v -75.9 2 24
v -75.9 2.25 24
v -78.1 2.25 24
v -78.1 2 26
v -75.9 2 26
v -75.9 2.25 26
v -78.1 2.25 26
f -8 -7 -6 -5
f -4 -1 -2 -3
f -8 -4 -3 -7
f -5 -6 -2 -1
f -8 -5 -1 -4
f -7 -3 -2 -6
v -78.1 2.25 23.85
v -75.9 2.25 23.85
v -75.9 4.25 23.85
v -78.1 4.25 23.85
v -78.1 2.25 24.1
v -75.9 2.25 24.1
v -75.9 4.25 24.1
v -78.1 4.25 24.1
f -8 -7 -6 -5
f -4 -1 -2 -3
f -8 -4 -3 -7
f -5 -6 -2 -1
f -8 -5 -1 -4
f -7 -3 -2 -6

o Chair_TB2
v -36.1 2 24
v -33.9 2 24
v -33.9 2.25 24
v -36.1 2.25 24
v -36.1 2 26
v -33.9 2 26
v -33.9 2.25 26
v -36.1 2.25 26
f -8 -7 -6 -5
f -4 -1 -2 -3
f -8 -4 -3 -7
f -5 -6 -2 -1
f -8 -5 -1 -4
f -7 -3 -2 -6
v -36.1 2.25 23.85
v -33.9 2.25 23.85
v -33.9 4.25 23.85
v -36.1 4.25 23.85
v -36.1 2.25 24.1
v -33.9 2.25 24.1
v -33.9 4.25 24.1
v -36.1 4.25 24.1
f -8 -7 -6 -5
f -4 -1 -2 -3
f -8 -4 -3 -7
f -5 -6 -2 -1
f -8 -5 -1 -4
f -7 -3 -2 -6

o Chair_TB3
v 33.9 2 24
v 36.1 2 24
v 36.1 2.25 24
v 33.9 2.25 24
v 33.9 2 26
v 36.1 2 26
v 36.1 2.25 26
v 33.9 2.25 26
f -8 -7 -6 -5
f -4 -1 -2 -3
f -8 -4 -3 -7
f -5 -6 -2 -1
f -8 -5 -1 -4
f -7 -3 -2 -6
v 33.9 2.25 23.85
v 36.1 2.25 23.85
v 36.1 4.25 23.85
v 33.9 4.25 23.85
v 33.9 2.25 24.1
v 36.1 2.25 24.1
v 36.1 4.25 24.1
v 33.9 4.25 24.1
f -8 -7 -6 -5
f -4 -1 -2 -3
f -8 -4 -3 -7
f -5 -6 -2 -1
f -8 -5 -1 -4
f -7 -3 -2 -6

o Chair_TB4
v 75.9 2 24
v 78.1 2 24
v 78.1 2.25 24
v 75.9 2.25 24
v 75.9 2 26
v 78.1 2 26
v 78.1 2.25 26
v 75.9 2.25 26
f -8 -7 -6 -5
f -4 -1 -2 -3
f -8 -4 -3 -7
f -5 -6 -2 -1
f -8 -5 -1 -4
f -7 -3 -2 -6
v 75.9 2.25 23.85
v 78.1 2.25 23.85
v 78.1 4.25 23.85
v 75.9 4.25 23.85
v 75.9 2.25 24.1
v 78.1 2.25 24.1
v 78.1 4.25 24.1
v 75.9 4.25 24.1
f -8 -7 -6 -5
f -4 -1 -2 -3
f -8 -4 -3 -7
f -5 -6 -2 -1
f -8 -5 -1 -4
f -7 -3 -2 -6

# Andar 2 cadeiras - assentos apenas + encosto

o ChairsUpper
usemtl Chair
# cada par de caixas repetido nos 8 centros
v -78.1 16 -26
v -75.9 16 -26
v -75.9 16.25 -26
v -78.1 16.25 -26
v -78.1 16 -24
v -75.9 16 -24
v -75.9 16.25 -24
v -78.1 16.25 -24
f -8 -7 -6 -5
f -4 -1 -2 -3
f -8 -4 -3 -7
f -5 -6 -2 -1
f -8 -5 -1 -4
f -7 -3 -2 -6
v -36.1 16 -26
v -33.9 16 -26
v -33.9 16.25 -26
v -36.1 16.25 -26
v -36.1 16 -24
v -33.9 16 -24
v -33.9 16.25 -24
v -36.1 16.25 -24
f -8 -7 -6 -5
f -4 -1 -2 -3
f -8 -4 -3 -7
f -5 -6 -2 -1
f -8 -5 -1 -4
f -7 -3 -2 -6
v 33.9 16 -26
v 36.1 16 -26
v 36.1 16.25 -26
v 33.9 16.25 -26
v 33.9 16 -24
v 36.1 16 -24
v 36.1 16.25 -24
v 33.9 16.25 -24
f -8 -7 -6 -5
f -4 -1 -2 -3
f -8 -4 -3 -7
f -5 -6 -2 -1
f -8 -5 -1 -4
f -7 -3 -2 -6
v 75.9 16 -26
v 78.1 16 -26
v 78.1 16.25 -26
v 75.9 16.25 -26
v 75.9 16 -24
v 78.1 16 -24
v 78.1 16.25 -24
v 75.9 16.25 -24
f -8 -7 -6 -5
f -4 -1 -2 -3
f -8 -4 -3 -7
f -5 -6 -2 -1
f -8 -5 -1 -4
f -7 -3 -2 -6
v -78.1 16 24
v -75.9 16 24
v -75.9 16.25 24
v -78.1 16.25 24
v -78.1 16 26
v -75.9 16 26
v -75.9 16.25 26
v -78.1 16.25 26
f -8 -7 -6 -5
f -4 -1 -2 -3
f -8 -4 -3 -7
f -5 -6 -2 -1
f -8 -5 -1 -4
f -7 -3 -2 -6
v -36.1 16 24
v -33.9 16 24
v -33.9 16.25 24
v -36.1 16.25 24
v -36.1 16 26
v -33.9 16 26
v -33.9 16.25 26
v -36.1 16.25 26
f -8 -7 -6 -5
f -4 -1 -2 -3
f -8 -4 -3 -7
f -5 -6 -2 -1
f -8 -5 -1 -4
f -7 -3 -2 -6
v 33.9 16 24
v 36.1 16 24
v 36.1 16.25 24
v 33.9 16.25 24
v 33.9 16 26
v 36.1 16 26
v 36.1 16.25 26
v 33.9 16.25 26
f -8 -7 -6 -5
f -4 -1 -2 -3
f -8 -4 -3 -7
f -5 -6 -2 -1
f -8 -5 -1 -4
f -7 -3 -2 -6
v 75.9 16 24
v 78.1 16 24
v 78.1 16.25 24
v 75.9 16.25 24
v 75.9 16 26
v 78.1 16 26
v 78.1 16.25 26
v 75.9 16.25 26
f -8 -7 -6 -5
f -4 -1 -2 -3
f -8 -4 -3 -7
f -5 -6 -2 -1
f -8 -5 -1 -4
f -7 -3 -2 -6

# R6 de referencia no hall térreo

o R6_Torso
usemtl Wood
v -1 2 -1
v 1 2 -1
v 1 4 -1
v -1 4 -1
v -1 2 0
v 1 2 0
v 1 4 0
v -1 4 0
f -8 -7 -6 -5
f -4 -1 -2 -3
f -8 -4 -3 -7
f -5 -6 -2 -1
f -8 -5 -1 -4
f -7 -3 -2 -6

o R6_Head
v -1 4 -1
v 1 4 -1
v 1 5 -1
v -1 5 -1
v -1 4 0
v 1 4 0
v 1 5 0
v -1 5 0
f -8 -7 -6 -5
f -4 -1 -2 -3
f -8 -4 -3 -7
f -5 -6 -2 -1
f -8 -5 -1 -4
f -7 -3 -2 -6

o R6_LegL
v -1 0 -1
v 0 0 -1
v 0 2 -1
v -1 2 -1
v -1 0 0
v 0 0 0
v 0 2 0
v -1 2 0
f -8 -7 -6 -5
f -4 -1 -2 -3
f -8 -4 -3 -7
f -5 -6 -2 -1
f -8 -5 -1 -4
f -7 -3 -2 -6

o R6_LegR
v 0 0 -1
v 1 0 -1
v 1 2 -1
v 0 2 -1
v 0 0 0
v 1 0 0
v 1 2 0
v 0 2 0
f -8 -7 -6 -5
f -4 -1 -2 -3
f -8 -4 -3 -7
f -5 -6 -2 -1
f -8 -5 -1 -4
f -7 -3 -2 -6
